# xmcd
#
# Track frame offsets: 
#        150
#        65400
#        83582
#        151125
#        197850
#        222087
#        259025
#        305500
#        328500
#
# Disc length: 4592 seconds
#
# Revision: 1
# Processed by: cddbd v1.5.2PL0 Copyright (c) Steve Scherf et al.
# Submitted via: ExactAudioCopyFreeDBPlugin 1.0
#
DISCID=7311ee09
DTITLE=Naoya Matsuoka - Emerald
DYEAR=1997
DGENRE=Jazz
TTITLE0=Emerald
TTITLE1=The Deep Sea
TTITLE2=Cross The Atlantic
TTITLE3=The Prime of Life
TTITLE4=Groovin' High
TTITLE5=Messenger
TTITLE6=Nuestra Fiesta
TTITLE7=Django Bop
TTITLE8=Legend of Love
EXTD=YEAR: 1999
EXTT0=
EXTT1=
EXTT2=
EXTT3=
EXTT4=
EXTT5=
EXTT6=
EXTT7=
EXTT8=
PLAYORDER=
